<mxfile host="65bd71144e">
    <diagram id="1gxZLhXWNBTuD6r0TkeE" name="Page-1">
        <mxGraphModel dx="995" dy="834" grid="1" gridSize="10" guides="1" tooltips="1" connect="1" arrows="1" fold="1" page="1" pageScale="1" pageWidth="850" pageHeight="1100" math="0" shadow="0">
            <root>
                <mxCell id="0"/>
                <mxCell id="1" parent="0"/>
                <mxCell id="2" value="Parent Class Stores:&lt;br&gt;&lt;ul&gt;&lt;li&gt;iterations&lt;/li&gt;&lt;li&gt;merges/swaps&lt;/li&gt;&lt;li&gt;time&lt;/li&gt;&lt;li&gt;comparison&lt;/li&gt;&lt;/ul&gt;" style="rounded=0;whiteSpace=wrap;html=1;" parent="1" vertex="1">
                    <mxGeometry x="350" y="10" width="130" height="130" as="geometry"/>
                </mxCell>
            </root>
        </mxGraphModel>
    </diagram>
</mxfile>